<svg id="Groupe_33" data-name="Groupe 33" xmlns="http://www.w3.org/2000/svg" xmlns:xlink="http://www.w3.org/1999/xlink" width="53.886" height="45.715" viewBox="0 0 53.886 45.715">
  <defs>
    <clipPath id="clip-path">
      <rect id="Rectangle_34" data-name="Rectangle 34" width="53.886" height="45.715"/>
    </clipPath>
  </defs>
  <g id="Groupe_32" data-name="Groupe 32" transform="translate(0 0)" clip-path="url(#clip-path)">
    <path id="Tracé_48" data-name="Tracé 48" d="M26.3,26.735c-5.346,0-9.7-6-9.7-13.368S20.955,0,26.3,0,36,6,36,13.367,31.647,26.735,26.3,26.735m0-25.307c-4.558,0-8.269,5.355-8.269,11.939s3.71,11.94,8.269,11.94,8.267-5.356,8.267-11.94S30.859,1.428,26.3,1.428" transform="translate(0.215 0)"/>
    <path id="Tracé_49" data-name="Tracé 49" d="M20.777,43.9H1.954c2.912-7.606,13.2-13.032,24.989-13.032S49.019,36.3,51.931,43.9H33.7v1.428H53.886l-.273-.918c-2.584-8.675-13.8-14.97-26.67-14.97S2.857,35.741.273,44.415L0,45.333H20.777Z" transform="translate(0 0.382)"/>
  </g>
</svg>
