<svg xmlns="http://www.w3.org/2000/svg" width="1920.199" height="753.136" viewBox="0 0 1920.199 753.136">
  <g id="Groupe_190" data-name="Groupe 190" transform="translate(-0.001 -326.864)">
    <g id="Groupe_189" data-name="Groupe 189">
      <path id="Soustraction_11" data-name="Soustraction 11" d="M1920,753.136H0V11.872l.008,0c.556-.124,13.933-3.058,38.062-5.934,14.465-1.723,29.942-3.1,46-4.081C104.14.624,125.191,0,146.632,0,183.186,0,221.329,1.809,260,5.378A1311.234,1311.234,0,0,1,459.05,38.789c18.932,4.723,38.04,9.964,56.8,15.578,19.767,5.917,39.731,12.425,59.337,19.343,20.572,7.259,41.346,15.181,61.748,23.546,21.328,8.745,42.867,18.229,64.018,28.185,18.8,8.85,37.751,18.281,56.327,28.031,19.177,10.067,38.559,20.79,57.6,31.871,18.826,10.954,38.385,21.642,58.134,31.768,19.212,9.851,39.135,19.443,59.216,28.51,19.512,8.81,39.7,17.362,60.008,25.419,19.7,7.819,40.059,15.387,60.5,22.495,19.806,6.886,40.232,13.526,60.709,19.737,19.81,6.008,40.206,11.777,60.62,17.146,38.729,10.185,79.037,19.332,119.805,27.186,37.7,7.263,76.711,13.6,115.943,18.823,35.908,4.784,72.83,8.752,109.738,11.794,63.081,5.2,127.511,7.834,191.5,7.834,29.009,0,58.045-.546,86.306-1.622,22.6-.861,44.76-2.062,65.862-3.569,35.987-2.571,56.572-5.166,56.775-5.192V753.136Z" transform="translate(0.001 326.864)" fill="#b5cecf" opacity="0.479"/>
      <path id="Tracé_63" data-name="Tracé 63" d="M0,0S156.7,17.851,296.239,9.225" transform="matrix(0.998, -0.07, 0.07, 0.998, 1623.675, 735.668)" fill="none" stroke="#fff" stroke-width="3"/>
    </g>
    <path id="Tracé_62" data-name="Tracé 62" d="M-3483.614-1291.571s164.254-27.144,411.71,51.332c84.593,26.827,179,66.05,279.9,122.967" transform="translate(3578.807 1639.272)" fill="none" stroke="#fff" stroke-width="3"/>
  </g>
</svg>
